<svg height="512pt" fill="black" viewBox="-5 0 512 512" width="512pt" xmlns="http://www.w3.org/2000/svg"><path d="m150.332031 242.882812v-26.980468c0-4.140625-3.355469-7.5-7.5-7.5-4.140625 0-7.5 3.359375-7.5 7.5v26.980468c0 4.140626 3.359375 7.5 7.5 7.5 4.144531 0 7.5-3.359374 7.5-7.5zm0 0"/><path d="m102.632812 280.0625c0 4.140625 3.359376 7.5 7.5 7.5h29.570313c4.144531 0 7.5-3.359375 7.5-7.5s-3.355469-7.5-7.5-7.5h-29.570313c-4.140624 0-7.5 3.355469-7.5 7.5zm0 0"/><path d="m359.828125 208.402344c-4.140625 0-7.5 3.359375-7.5 7.5v26.980468c0 4.140626 3.359375 7.5 7.5 7.5 4.144531 0 7.5-3.359374 7.5-7.5v-26.980468c0-4.140625-3.355469-7.5-7.5-7.5zm0 0"/><path d="m355.457031 280.0625c0 4.140625 3.355469 7.5 7.5 7.5h29.570313c4.140625 0 7.5-3.359375 7.5-7.5s-3.359375-7.5-7.5-7.5h-29.570313c-4.144531 0-7.5 3.355469-7.5 7.5zm0 0"/><path d="m193.285156 367.433594c15.957032 13.875 36.859375 21.78125 58.042969 21.78125 23.242187 0 45.996094-9.429688 62.425781-25.863282 16.675782-16.664062 25.863282-38.835937 25.863282-62.425781 0-13.378906-11.171876-24.539062-24.539063-24.539062h-127.496094c-13.53125 0-24.539062 11.007812-24.539062 24.539062 0 25.238281 11.1875 49.941407 30.242187 66.507813zm16.25-6.304688c.113282-.089844.21875-.1875.332032-.277344 11.5625-9.132812 26.957031-12.699218 41.460937-12.699218 14.539063 0 29.867187 3.539062 41.464844 12.699218.113281.089844.21875.1875.332031.277344-12.199219 8.484375-26.765625 13.085938-41.796875 13.085938-15.027344 0-29.59375-4.601563-41.792969-13.085938zm83.113282-69.742187v5.664062c0 5.921875-4.816407 10.738281-10.738282 10.738281h-61.15625c-5.925781 0-10.742187-4.816406-10.742187-10.738281v-5.664062zm-114.605469 9.539062c0-5.257812 4.277343-9.539062 9.539062-9.539062h7.429688v5.664062c0 14.191407 11.546875 25.738281 25.742187 25.738281h61.15625c14.191406 0 25.738282-11.546874 25.738282-25.738281v-5.664062h7.433593c5.195313 0 9.535157 4.351562 9.535157 9.539062 0 18.871094-7.082032 36.648438-19.984376 50.296875-.074218-.066406-.152343-.125-.226562-.1875-14.441406-12.605468-34.210938-17.882812-53.074219-17.882812-18.757812 0-38.714843 5.347656-53.074219 17.882812-.074218.0625-.152343.121094-.226562.1875-12.90625-13.648437-19.988281-31.421875-19.988281-50.296875zm0 0"/><path d="m76.226562 439.46875c46.769532 46.773438 108.957032 72.53125 175.105469 72.53125 58.589844 0 115.4375-20.851562 160.078125-58.710938 3.160156-2.679687 3.550782-7.414062.871094-10.570312-2.679688-3.160156-7.414062-3.550781-10.570312-.871094-41.9375 35.566406-95.339844 55.152344-150.378907 55.152344-62.140625 0-120.5625-24.199219-164.5-68.136719-43.941406-43.941406-68.140625-102.359375-68.140625-164.5 0-32.605469 6.542969-63.921875 19.464844-93.304687.046875.039062.101562.074218.148438.117187 9.867187 8.210938 25.851562 2.976563 28.472656-9.695312 2.042968-9.863281 8.855468-16.710938 18.691406-18.785157 8.3125-1.757812 13.785156-9.289062 13.785156-17.59375 0-8.140624-5.667968-15.023437-13.785156-16.738281-1.773438-.371093-3.53125-.925781-5.1875-1.664062 9.941406-10.769531 20.933594-20.632813 32.769531-29.398438 3.328125-2.464843 4.027344-7.164062 1.5625-10.492187-2.464843-3.328125-7.164062-4.027344-10.492187-1.5625-12.589844 9.324218-24.273438 19.839844-34.851563 31.300781-1.125-2.105469-1.96875-4.433594-2.492187-6.96875-1.699219-8.214844-9.410156-13.675781-17.578125-13.675781-8.144531 0-15.023438 5.664062-16.734375 13.777344-2.074219 9.839843-8.921875 16.65625-18.789063 18.695312-7.921875 1.640625-13.675781 8.765625-13.675781 16.945312 0 8.1875 5.464844 15.652344 13.710938 17.367188 7.109374 1.480469 12.640624 5.457031 15.949218 11.246094-16.980468 34.0625-25.964844 72.148437-25.964844 110.429687 0 66.148438 25.757813 128.332031 72.53125 175.105469zm-59.460937-311.464844c-2.3125-.480468-2.417969-4.445312-.046875-4.9375 15.738281-3.253906 27.113281-14.578125 30.425781-30.292968.488281-2.3125 4.4375-2.617188 4.945313-.152344 2.886718 13.945312 12.113281 24.449218 25.105468 28.96875 1.695313.589844 3.417969 1.082031 5.171876 1.453125 2.5.527343 2.53125 4.441406.003906 4.972656-15.707032 3.316406-27.027344 14.691406-30.28125 30.425781-.289063 1.390625-1.558594 1.714844-2.773438 1.714844-2.757812 0-2.695312-4.136719-3.285156-5.988281-4.300781-13.535157-14.96875-23.1875-29.265625-26.164063zm0 0"/><path d="m487.875 111.054688c-11.046875-2.332032-18.691406-10.019532-20.980469-21.085938-1.808593-8.746094-9.863281-14.398438-18.539062-14.398438-8.570313 0-15.8125 5.964844-17.613281 14.507813-.207032.980469-.46875 1.925781-.761719 2.851563-10.304688-10.734376-21.542969-20.546876-33.582031-29.265626 2.542968-2.753906 5.949218-4.675781 10.027343-5.535156 7.578125-1.601562 12.480469-8.304687 12.480469-15.882812 0-7.378906-5.132812-13.617188-12.476562-15.167969-7.691407-1.625-13.015626-6.976563-14.609376-14.683594-1.550781-7.5-8.394531-12.394531-15.875-12.394531-7.382812 0-13.621093 5.128906-15.167968 12.472656-1.621094 7.691406-6.972656 13.015625-14.683594 14.613282-3.421875.707031-6.390625 2.550781-8.566406 5.082031-27.558594-10.242188-56.519532-15.441407-86.199219-15.441407-42.25 0-83.980469 10.851563-120.683594 31.378907-3.613281 2.023437-4.90625 6.589843-2.882812 10.207031 2.019531 3.613281 6.589843 4.90625 10.207031 2.882812 34.46875-19.277343 73.667969-29.46875 113.359375-29.46875 28.585937 0 56.460937 5.121094 82.925781 15.226563.589844 2.152344 1.660156 4.175781 3.089844 5.882813 2.203125 2.632812 5.253906 4.414062 8.574219 5.234374 7.539062 1.867188 13.21875 6.898438 14.855469 14.652344 1.550781 7.347656 7.832031 12.476563 15.269531 12.480469 5.523437 0 11.089843-2.851563 13.933593-7.652344 11.289063 8.390625 21.816407 17.800781 31.429688 28.097657-1.992188 1.597656-4.234375 2.898437-6.683594 3.886718-3.214844 1.296875-6.792968 1.636719-9.863281 3.285156-4.863281 2.609376-8.355469 7.378907-9.332031 12.917969-1.707032 9.695313 4.386718 19.441407 14.160156 21.476563 10.683594 2.222656 18.777344 10.207031 21.050781 20.972656 1.753907 8.316406 9.164063 14.515625 17.746094 14.515625 6.839844 0 13.628906-3.683594 16.800781-9.847656 12.402344 28.859375 18.679688 59.5625 18.679688 91.507812 0 58.449219-21.769532 114.328125-61.300782 157.351563-2.800781 3.046875-2.601562 7.792968.449219 10.59375 2.957031 2.71875 7.8125 2.585937 10.597657-.445313 42.078124-45.796875 65.253906-105.285156 65.253906-167.5 0-37.863281-8.785156-75.539062-25.402344-109.296875 3.644531-3.902344 8.5-6.621094 14.308594-7.847656 8.863281-1.871094 14.515625-9.703125 14.515625-18.550781.003906-8.566407-5.964844-15.8125-14.511719-17.613281zm-111.828125-40.871094c-.285156-.039063-.511719-.164063-.59375-.554688-.347656-1.652344-.820313-3.320312-1.394531-4.90625-2.972656-8.214844-8.757813-14.628906-16.4375-18.390625-2.609375-1.277343-5.429688-2.265625-8.445313-2.894531-.269531-.054688-.476562-.300781-.476562-.578125l.007812-.472656c.011719-.316407.179688-.5625.425781-.613281 13.617188-2.816407 23.457032-12.613282 26.320313-26.207032.0625-.28125.25-.566406.492187-.566406h.515626c.347656 0 .613281.175781.667968.433594 2.816406 13.613281 12.609375 23.453125 26.199219 26.320312.285156.0625.574219.25.574219.492188v.710937c0 .246094-.289063.433594-.574219.496094-11.558594 2.4375-20.351563 9.933594-24.460937 20.488281-.738282 1.898438-1.328126 3.839844-1.738282 5.832032-.050781.246093-.296875.429687-.570312.429687-.179688 0-.355469.003906-.511719-.019531zm111.289063 59.414062c-.183594 1.441406-.871094 2.585938-2.558594 2.945313-16.390625 3.460937-29.1875 16.332031-32.574219 32.726562-.710937 3.445313-6.097656 3.070313-6.785156-.183593-3.460938-16.421876-16.113281-29.113282-32.671875-32.558594-1.792969-.375-2.488282-1.960938-2.488282-3.621094 0-1.4375.957032-2.847656 2.441407-3.152344 16.464843-3.414062 29.234375-16.042968 32.722656-32.585937.683594-3.253907 6.074219-3.582031 6.78125-.164063 3.503906 16.925782 15.679687 29.15625 32.574219 32.722656 1.902344.40625 2.792968 2.035157 2.558594 3.871094zm0 0"/></svg>