<?xml version="1.0" encoding="iso-8859-1"?>
<!-- Generator: Adobe Illustrator 19.0.0, SVG Export Plug-In . SVG Version: 6.00 Build 0)  -->
<svg version="1.1" id="Capa_1" xmlns="http://www.w3.org/2000/svg" xmlns:xlink="http://www.w3.org/1999/xlink" x="0px" y="0px"
	 viewBox="0 0 297.85 297.85" style="enable-background:new 0 0 297.85 297.85;" xml:space="preserve">
<g>
	<path d="M65.895,258.206l52.825-14.154c-15.725-6.68-24.787-23.788-21.085-40.771l-17.299-12.834l14.666-33.637l12.545,9.308
		l31.211-116.493c0.301-1.12,0.657-2.214,1.058-3.284c-3.772-4.604-9.487-7.376-15.528-7.376c-1.702,0-3.429,0.22-5.146,0.68
		L14.821,67.596C4.196,70.443-2.168,81.466,0.68,92.091l40.72,151.974c2.388,8.908,10.522,14.821,19.35,14.821
		C62.451,258.886,64.178,258.666,65.895,258.206z M75.59,84.364l28.891,21.437l-14.664,33.638l-28.891-21.438L75.59,84.364z"/>
	<path d="M283.028,67.596l-104.32-27.952c-1.717-0.46-3.443-0.68-5.145-0.68c-8.827,0-16.962,5.913-19.35,14.821l-40.72,151.974
		c-2.848,10.625,3.517,21.647,14.142,24.495l104.32,27.952c1.717,0.46,3.443,0.68,5.145,0.68c8.827,0,16.962-5.913,19.35-14.821
		l40.72-151.974C300.018,81.466,293.653,70.443,283.028,67.596z M187.786,212.921c-26.355-28.895-12.649-44.61-3.493-45.032
		c7.716-0.353,11.137,5.019,12.766,10.645c3.896-4.74,9.893-6.969,16.384-2.781C221.145,180.718,225.094,201.193,187.786,212.921z
		 M210.786,126.921c-26.355-28.895-12.649-44.61-3.493-45.032c7.716-0.353,11.137,5.019,12.766,10.645
		c3.896-4.74,9.893-6.969,16.384-2.781C244.145,94.718,248.094,115.193,210.786,126.921z"/>
</g>
<g>
</g>
<g>
</g>
<g>
</g>
<g>
</g>
<g>
</g>
<g>
</g>
<g>
</g>
<g>
</g>
<g>
</g>
<g>
</g>
<g>
</g>
<g>
</g>
<g>
</g>
<g>
</g>
<g>
</g>
</svg>
