<?xml version="1.0" encoding="iso-8859-1"?>
<!-- Generator: Adobe Illustrator 19.0.0, SVG Export Plug-In . SVG Version: 6.00 Build 0)  -->
<svg version="1.1" id="Capa_1" xmlns="http://www.w3.org/2000/svg" xmlns:xlink="http://www.w3.org/1999/xlink" x="0px" y="0px"
	 viewBox="0 0 296.473 296.473" style="enable-background:new 0 0 296.473 296.473;" xml:space="preserve">
<g>
	<path d="M292.676,114.759c-0.552-2.391-1.161-4.759-1.827-7.104c-1.665-5.862-3.682-11.576-6.026-17.118
		c-0.938-2.217-1.927-4.406-2.968-6.566c-0.52-1.08-1.054-2.153-1.6-3.219C255.7,32.811,205.8,0,148.237,0h-0.001h-0.001
		C90.673,0,40.772,32.811,16.218,80.751c-0.546,1.065-1.079,2.139-1.6,3.219c-1.561,3.24-3.008,6.546-4.335,9.912
		c-1.77,4.487-3.327,9.083-4.659,13.772c-0.666,2.346-1.275,4.714-1.827,7.104c-2.483,10.759-3.796,21.965-3.796,33.478
		s1.313,22.719,3.796,33.478c0.552,2.391,1.161,4.759,1.827,7.104c1.332,4.689,2.89,9.285,4.659,13.773
		c1.327,3.366,2.774,6.672,4.335,9.912c0.521,1.08,1.054,2.153,1.6,3.219c24.555,47.94,74.455,80.751,132.018,80.751h0.001h0.001
		c57.563,0,107.463-32.81,132.018-80.751c0.546-1.065,1.079-2.139,1.6-3.219c1.041-2.16,2.03-4.35,2.968-6.566
		c2.345-5.542,4.361-11.256,6.026-17.118c0.666-2.346,1.275-4.714,1.827-7.104c2.483-10.759,3.796-21.965,3.796-33.478
		S295.159,125.518,292.676,114.759z M214.736,148.236l-66.5,87.334l-66.5-87.334l66.5-87.334L214.736,148.236z"/>
</g>
<g>
</g>
<g>
</g>
<g>
</g>
<g>
</g>
<g>
</g>
<g>
</g>
<g>
</g>
<g>
</g>
<g>
</g>
<g>
</g>
<g>
</g>
<g>
</g>
<g>
</g>
<g>
</g>
<g>
</g>
</svg>
