<?xml version="1.0" encoding="iso-8859-1"?>
<!-- Generator: Adobe Illustrator 19.0.0, SVG Export Plug-In . SVG Version: 6.00 Build 0)  -->
<svg version="1.1" id="Capa_1" xmlns="http://www.w3.org/2000/svg" xmlns:xlink="http://www.w3.org/1999/xlink" x="0px" y="0px"
	 viewBox="0 0 295 295" style="enable-background:new 0 0 295 295;" xml:space="preserve">
<g>
	<polygon points="40.703,15 38.439,23 43.072,23 40.793,15 	"/>
	<path d="M46.5,62.191C46.5,42.341,63.412,26,83.263,26H147.5v-5.667c0-11-8.667-20.333-19.667-20.333H41.404
		C30.404,0,21.5,9.333,21.5,20.333v128.572c0,11,8.904,20.095,19.904,20.095H46.5V62.191z M37.314,27l-1.229,4h-5.099l7.048-21
		h5.443l7.062,21h-5.098l-1.244-4H37.314z"/>
	<path d="M83.263,211H89.5V104.903C89.5,85.053,106.124,69,125.975,69H189.5v-6.809c0-11-8.809-20.191-19.809-20.191H83.263
		c-11,0-20.763,9.191-20.763,20.191v128.572C62.5,201.764,72.263,211,83.263,211z M79.893,51h5.443l7.062,22H87.3l-1.244-4h-6.883
		l-1.229,4h-5.099L79.893,51z"/>
	<polygon points="82.651,57 82.561,57 80.298,65 84.931,65 	"/>
	<path d="M125.975,253h5.525V146.762c0-19.851,16.482-35.762,36.333-35.762H232.5v-6.097c0-11-9.097-19.903-20.097-19.903h-86.429
		c-11,0-20.475,8.903-20.475,19.903v128.572C105.5,244.476,114.975,253,125.975,253z M122.604,94h5.443l7.062,22h-5.098l-1.244-4
		h-6.883l-1.229,4h-5.099L122.604,94z"/>
	<polygon points="125.363,100 125.273,100 123.01,108 127.643,108 	"/>
	<path d="M254.262,127h-0.429h-86c-11,0-20.333,8.762-20.333,19.762v2.144v126.429c0,11,9.333,19.666,20.333,19.666h86.429
		c11,0,19.238-8.666,19.238-19.666V146.762C273.5,135.762,265.262,127,254.262,127z M211.025,179.134
		c9.172,0,16.609,7.438,16.609,16.611c0,0.686-0.055,1.36-0.136,2.024c7.318,1.736,12.769,8.296,12.769,16.145
		c0,9.174-7.436,16.609-16.609,16.609c-2.972,0-5.755-0.79-8.168-2.157L216.586,243h-10.814l1.106-14.799
		c-2.476,1.467-5.354,2.323-8.44,2.323c-9.174,0-16.609-7.436-16.609-16.609c0-7.833,5.428-14.382,12.724-16.134
		c-0.082-0.668-0.138-1.346-0.138-2.036C194.414,186.571,201.852,179.134,211.025,179.134z M164.463,136h5.443l7.062,22h-5.098
		l-1.244-4h-6.883l-1.23,4h-5.099L164.463,136z"/>
	<polygon points="167.222,142 167.132,142 164.868,150 169.501,150 	"/>
</g>
<g>
</g>
<g>
</g>
<g>
</g>
<g>
</g>
<g>
</g>
<g>
</g>
<g>
</g>
<g>
</g>
<g>
</g>
<g>
</g>
<g>
</g>
<g>
</g>
<g>
</g>
<g>
</g>
<g>
</g>
</svg>
