<?xml version="1.0" encoding="iso-8859-1"?>
<!-- Generator: Adobe Illustrator 19.0.0, SVG Export Plug-In . SVG Version: 6.00 Build 0)  -->
<svg version="1.1" id="Capa_1" xmlns="http://www.w3.org/2000/svg" xmlns:xlink="http://www.w3.org/1999/xlink" x="0px" y="0px"
	 viewBox="0 0 296 296" style="enable-background:new 0 0 296 296;" xml:space="preserve">
<g>
	<path d="M296,92.535v-71.07c0-5.5-3.815-10.465-9.315-10.465H10.296C4.796,11,0,15.965,0,21.465v71.07
		c0,4.464,2.94,8.574,6.987,9.965C2.94,103.891,0,108.001,0,112.465v71.07c0,4.464,2.94,8.574,6.987,9.965
		C2.94,194.891,0,199.001,0,203.465v71.07C0,280.035,4.796,285,10.296,285h276.39c5.5,0,9.315-4.965,9.315-10.465v-71.07
		c0-4.464-2.731-8.574-6.701-9.965c3.97-1.391,6.701-5.501,6.701-9.965v-71.07c0-4.464-2.731-8.574-6.701-9.965
		C293.269,101.109,296,96.999,296,92.535z M233,28v58h-31V28H233z M140,28v58h-31V28H140z M47,28v58H16V28H47z M63,177v-58h31v58H63
		z M156,177v-58h31v58H156z M249,177v-58h31v58H249z M109,268v-58h31v58H109z M202,268v-58h31v58H202z M47,210v58H16v-58H47z"/>
</g>
<g>
</g>
<g>
</g>
<g>
</g>
<g>
</g>
<g>
</g>
<g>
</g>
<g>
</g>
<g>
</g>
<g>
</g>
<g>
</g>
<g>
</g>
<g>
</g>
<g>
</g>
<g>
</g>
<g>
</g>
</svg>
