<?xml version="1.0" encoding="iso-8859-1"?>
<!-- Generator: Adobe Illustrator 19.0.0, SVG Export Plug-In . SVG Version: 6.00 Build 0)  -->
<svg version="1.1" id="Capa_1" xmlns="http://www.w3.org/2000/svg" xmlns:xlink="http://www.w3.org/1999/xlink" x="0px" y="0px"
	 viewBox="0 0 296 296" style="enable-background:new 0 0 296 296;" xml:space="preserve">
<g>
	<path d="M286.333,139.5H280v-56c0-5.5-4.167-10-9.667-10H264V17.334c0-5.5-4.167-9.834-9.667-9.834h-244
		C4.833,7.5,0,11.834,0,17.334V79.5c0,5.5,4.833,10,10.333,10H16v56c0,5.5,4.833,10,10.333,10H32v51H10.333
		C4.833,206.5,0,210.834,0,216.334V278.5c0,5.5,4.833,10,10.333,10h244c5.5,0,9.667-4.5,9.667-10v-56h22.333
		c5.5,0,9.667-4.5,9.667-10v-63.333C296,143.667,291.833,139.5,286.333,139.5z M48,188.5v-16h232v16H48z M42.333,139.5H32v-18h232
		v18H42.333z M248,40.5v16H16v-16H248z M254.333,89.5H264v16H32v-16H254.333z M16,272.5v-18h232v18H16z M248,238.5H16v-16h26.333
		H248V238.5z"/>
</g>
<g>
</g>
<g>
</g>
<g>
</g>
<g>
</g>
<g>
</g>
<g>
</g>
<g>
</g>
<g>
</g>
<g>
</g>
<g>
</g>
<g>
</g>
<g>
</g>
<g>
</g>
<g>
</g>
<g>
</g>
</svg>
