<svg height="511pt" viewBox="1 -18 511.99889 511" width="511pt" xmlns="http://www.w3.org/2000/svg"><path d="m442.972656 70.082031c-44.539062-44.871093-103.769531-69.582031-166.773437-69.582031-63.003907 0-122.234375 24.710938-166.777344 69.582031-44.511719 44.84375-69.023437 104.457031-69.023437 167.855469 0 36.703125 8.523437 73.144531 24.667968 105.792969-7.734375 29.085937-28.371094 53.253906-56.035156 65.261719-7.597656 3.300781-11.085938 12.132812-7.789062 19.730468.628906 1.449219 1.460937 2.742188 2.441406 3.875 19.949218 22.9375 48.746094 36.089844 79.011718 36.089844 26.507813 0 51.730469-10.015625 70.996094-27.835938 36.859375 22.625 78.945313 34.527344 122.507813 34.527344 63.003906 0 122.234375-24.710937 166.773437-69.585937 44.511719-44.839844 69.027344-104.453125 69.027344-167.855469 0-63.398438-24.515625-123.011719-69.027344-167.855469zm-166.773437 375.296875c-41.742188 0-81.929688-12.523437-116.214844-36.21875l-.003906.003906c-6.300781-4.359374-15-3.289062-20.019531 2.699219-14.292969 17.046875-35.164063 26.824219-57.269532 26.824219-15.074218 0-29.640625-4.597656-41.914062-12.949219 27.871094-18.507812 47.804687-47.464843 54.839844-80.8125.777343-3.691406.113281-7.351562-1.597657-10.40625-15.449219-29.550781-23.621093-62.933593-23.621093-96.582031 0-114.382812 92.320312-207.4375 205.800781-207.4375s205.800781 93.054688 205.800781 207.4375-92.324219 207.441406-205.800781 207.441406zm0 0"/><path d="m276.199219 78.585938c-87.871094 0-159.355469 71.484374-159.355469 159.351562s71.484375 159.355469 159.355469 159.355469c87.867187 0 159.351562-71.488281 159.351562-159.355469s-71.484375-159.351562-159.351562-159.351562zm0 288.707031c-71.328125 0-129.355469-58.027344-129.355469-129.355469 0-71.324219 58.027344-129.351562 129.355469-129.351562 71.324219 0 129.351562 58.027343 129.351562 129.351562 0 71.328125-58.027343 129.355469-129.351562 129.355469zm0 0"/><path d="m226.199219 219.59375c8.28125 0 15-6.714844 15-15v-8.316406c0-8.285156-6.71875-15-15-15-8.285157 0-15 6.714844-15 15v8.316406c0 8.285156 6.714843 15 15 15zm0 0"/><path d="m326.199219 181.277344c-8.285157 0-15 6.714844-15 15v8.316406c0 8.285156 6.714843 15 15 15 8.28125 0 15-6.714844 15-15v-8.316406c0-8.285156-6.71875-15-15-15zm0 0"/><path d="m326.199219 246.875c-8.285157 0-15 6.71875-15 15 0 12.53125-10.195313 22.726562-22.726563 22.726562h-24.550781c-12.53125 0-22.722656-10.195312-22.722656-22.726562 0-8.28125-6.71875-15-15-15-8.285157 0-15 6.71875-15 15 0 29.074219 23.652343 52.726562 52.722656 52.726562h24.550781c29.070313 0 52.722656-23.652343 52.722656-52.726562.003907-8.28125-6.714843-15-14.996093-15zm0 0"/></svg>