<svg height="512pt" viewBox="0 0 512 512.001" width="512pt" xmlns="http://www.w3.org/2000/svg"><path d="m258.910156 309.808594 55.1875-54.808594h-162.097656c-11.042969 0-20-8.953125-20-20s8.957031-20 20-20h160.082031l-53.171875-52.808594c-7.839844-7.785156-7.882812-20.449218-.097656-28.285156 7.78125-7.835938 20.445312-7.878906 28.28125-.097656l60.253906 59.839844c11.386719 11.304687 17.652344 26.347656 17.652344 42.351562s-6.269531 31.046875-17.648438 42.351562l-60.257812 59.839844c-3.898438 3.875-8.996094 5.808594-14.09375 5.808594-5.140625 0-10.28125-1.96875-14.1875-5.90625-7.785156-7.835938-7.742188-20.5.097656-28.285156zm177.472656-241.296875c-48.273437-44.179688-112.332031-68.511719-180.382812-68.511719-68.046875 0-132.109375 24.332031-180.378906 68.511719-48.765625 44.632812-75.621094 104.113281-75.621094 167.488281 0 49.425781 16.164062 96.253906 46.871094 136.171875l-45.410156 112.332031c-3.054688 7.546875-1.226563 16.191406 4.621093 21.855469 3.808594 3.695313 8.824219 5.640625 13.925781 5.640625 2.722657 0 5.46875-.554688 8.0625-1.699219l128.65625-56.710937c31.441407 12.21875 64.796876 18.410156 99.273438 18.410156 43.15625 0 85.828125-10.085938 123.398438-29.167969 9.851562-5.003906 13.777343-17.039062 8.777343-26.890625-5.003906-9.847656-17.042969-13.777344-26.890625-8.773437-31.984375 16.246093-68.390625 24.832031-105.285156 24.832031-32.054688 0-62.917969-6.234375-91.734375-18.527344-5.089844-2.171875-10.851563-2.136718-15.917969.09375l-91.34375 40.265625 31.367188-77.589843c2.792968-6.90625 1.511718-14.796876-3.324219-20.46875-29.46875-34.574219-45.046875-75.992188-45.046875-119.773438 0-108.074219 96.898438-196 216-196 119.105469 0 216 87.925781 216 196 0 37.214844-11.546875 73.425781-33.394531 104.714844-6.324219 9.054687-4.109375 21.523437 4.945312 27.847656 9.054688 6.324219 21.523438 4.109375 27.847657-4.949219 26.5625-38.035156 40.601562-82.164062 40.601562-127.613281 0-63.375-26.855469-122.855469-75.617188-167.488281zm0 0"/></svg>