<?xml version="1.0" encoding="iso-8859-1"?>
<!-- Generator: Adobe Illustrator 16.0.0, SVG Export Plug-In . SVG Version: 6.00 Build 0)  -->
<!DOCTYPE svg PUBLIC "-//W3C//DTD SVG 1.1//EN" "http://www.w3.org/Graphics/SVG/1.1/DTD/svg11.dtd">
<svg version="1.1" id="Capa_1" xmlns="http://www.w3.org/2000/svg" xmlns:xlink="http://www.w3.org/1999/xlink" x="0px" y="0px"
	 width="84px" height="84px" viewBox="0 0 84 84" style="enable-background:new 0 0 84 84;" xml:space="preserve">
<g>
	<path d="M68.5,0h-53c-1.104,0-2,0.896-2,2v80c0,1.104,0.896,2,2,2h53c1.104,0,2-0.896,2-2V2C70.5,0.896,69.604,0,68.5,0z M66.5,80
		h-49V4h49V80z M27.992,42.743c0-1.059,0.194-2.073,0.587-3.061l0.731-1.454c0.28-0.456,0.603-0.906,0.974-1.355
		c0.011-0.014,0.022-0.027,0.034-0.04l10.891-11.905c0.203-0.223,0.491-0.35,0.793-0.35h0.002c0.303,0,0.592,0.127,0.795,0.352
		l10.887,11.942c0.008,0.009,0.017,0.017,0.021,0.025c0.389,0.457,0.704,0.924,0.996,1.402l0.738,1.443
		c0.375,0.967,0.564,1.968,0.564,3c0,4.396-3.32,8.029-7.585,8.529l-0.567,0.051c-0.146,0.008-0.291,0.011-0.439,0.011
		c-1.227,0-2.408-0.256-3.492-0.737c-0.197,2.694-0.186,5.555,0.643,6.381c1.683,1.684,7.371,0,7.371,0v2.443H32.063v-2.443
		c0,0,5.801,1.795,7.372,0c0.92-1.051,0.951-3.828,0.738-6.425c-1.109,0.511-2.327,0.781-3.589,0.781
		c-0.158,0-0.314-0.006-0.471-0.013l-0.567-0.053C31.298,50.755,27.992,47.128,27.992,42.743z"/>
</g>
<g>
</g>
<g>
</g>
<g>
</g>
<g>
</g>
<g>
</g>
<g>
</g>
<g>
</g>
<g>
</g>
<g>
</g>
<g>
</g>
<g>
</g>
<g>
</g>
<g>
</g>
<g>
</g>
<g>
</g>
</svg>
